# xmcd CD database file
#
# Track frame offsets:
#	150
#	9222
#	30501
#	47780
#	65806
#	92202
#	118237
#	135798
#	166164
#	180232
#	197851
#	225214
#	240000
#	264158
#	290148
#
# Disc length: 4328 seconds
#
# Revision: 0
# Processed by: cddbd v1.5.2PL0 Copyright (c) Steve Scherf et al.
# Submitted via: CDex 1.70beta2
#
DISCID=b710e60f
DTITLE=Till Bronner - The Christmas Album
DYEAR=2007
DGENRE=Jazz
TTITLE0=We Wish You A Merry Christmas - Joy To The World
TTITLE1=White Christmas
TTITLE2=Santa Claus Is Coming To Town
TTITLE3=Last Christmas
TTITLE4=Silent Night
TTITLE5=What Are You Doing New Year's Eve
TTITLE6=Better Than Christmas
TTITLE7=Notes On Snow
TTITLE8=Winter Wonderland
TTITLE9=Moon River
TTITLE10=Nature Boy
TTITLE11=Christmas Is Never
TTITLE12=Auld Lang Syne
TTITLE13=Let It Snow,Let It snow,Let It Snow
TTITLE14=White Christmas (Video Clip)
EXTD=YEAR: 2007
EXTT0=
EXTT1=
EXTT2=
EXTT3=
EXTT4=
EXTT5=
EXTT6=
EXTT7=
EXTT8=
EXTT9=
EXTT10=
EXTT11=
EXTT12=
EXTT13=
EXTT14=
PLAYORDER=
